<?xml version="1.0" encoding="UTF-8" standalone="no"?>
<svg
   width="1.8750001in"
   height="1.25in"
   viewBox="0 0 135.00026 90"
   version="1.1"
   id="svg5"
   sodipodi:docname="Mastercard.svg"
   inkscape:export-filename="..\..\..\..\..\xampp\htdocs\compensapay\assets\images\cardtype\Mastercard.svg"
   inkscape:export-xdpi="96"
   inkscape:export-ydpi="96"
   xml:space="preserve"
   xmlns:inkscape="http://www.inkscape.org/namespaces/inkscape"
   xmlns:sodipodi="http://sodipodi.sourceforge.net/DTD/sodipodi-0.dtd"
   xmlns="http://www.w3.org/2000/svg"
   xmlns:svg="http://www.w3.org/2000/svg"><defs
     id="defs5" /><sodipodi:namedview
     id="namedview5"
     pagecolor="#ffffff"
     bordercolor="#000000"
     borderopacity="0.25"
     inkscape:showpageshadow="2"
     inkscape:pageopacity="0.0"
     inkscape:pagecheckerboard="0"
     inkscape:deskcolor="#d1d1d1"
     inkscape:document-units="in"
     showguides="true" /><g
     id="g5"
     transform="matrix(0.09020363,0,0,0.09020363,54.906981,22.505086)"><path
       d="m -360.39201,-249.37925 h 997.517 v 538.49 l -49.375,77.147 49.375,68.661 v 313.219 h -997.517 v -507.63 l 30.859,-35.488 -30.859,-33.945 z"
       fill="#016fd0"
       id="path1" /><path
       d="m -166.75201,445.71975 v -156.61 H -0.93204095 l 17.79099395,23.193 18.379995,-23.193 H 637.12499 v 145.811 c 0,0 -15.74,10.643 -33.945,10.8 H 269.90296 l -20.05801,-24.688 v 24.688 h -65.73002 v -42.142 c 0,0 -8.979,5.882 -28.39,5.882 h -22.373 v 36.26 H 33.831949 l -17.765996,-23.69 -18.0379941,23.69 z m -193.64,-274.645 37.393,-87.177 h 64.668 l 21.22,48.833 v -48.833 h 80.388 l 12.633,35.295 12.247,-35.295 h 360.85796 v 17.744 c 0,0 18.97,-17.744 50.14601,-17.744 l 117.08503,0.41 20.854,48.193 v -48.603 h 67.273 l 18.515,27.683 v -27.683 h 67.89 v 156.61 h -67.89 l -17.744,-27.774 v 27.773 h -98.838 l -9.94,-24.687 h -26.57001 l -9.779,24.687 h -67.02802 c -26.82601,0 -43.97401,-17.381 -43.97401,-17.381 v 17.381 H 127.95093 l -20.058,-24.686 v 24.687 h -375.80394 l -9.933,-24.687 h -26.488 l -9.86,24.686 h -46.2 z"
       fill="#ffffff"
       id="path2" /><path
       d="m -309.76401,103.20475 -50.435,117.264 h 32.836 l 9.306,-23.482 h 54.1 l 9.257,23.482 h 33.56 l -50.389,-117.264 z m 18.66,27.29 16.49,41.034 h -33.028 z m 73.435,89.954 v -117.264 l 46.661,0.173 27.14,75.605 26.49,-75.778 h 46.288989 v 117.264 h -29.315989 v -86.405 l -31.076,86.405 h -25.71 l -31.162,-86.405 v 86.405 z m 166.637983,0 v -117.264 h 95.662973 v 26.23 h -66.037981 v 20.058 h 64.494981 v 24.688 h -64.494981 v 20.83 h 66.037981 v 25.458 z m 112.635968,-117.244 v 117.264 h 29.315992 v -41.66 h 12.342997 l 35.15,41.66 h 35.826 l -38.574,-43.203 c 15.831,-1.336 32.161,-14.923 32.161,-36.018 0,-24.676 -19.368,-38.043 -40.984,-38.043 z m 29.315992,26.23 h 33.509997 c 8.04,0 13.887,6.288 13.887,12.343 0,7.79 -7.577,12.344 -13.452,12.344 H 90.920933 Z m 118.807007,91.014 h -29.93301 v -117.264 h 29.93301 z m 70.97502,0 h -6.46 c -31.26201,0 -50.24301,-24.63 -50.24301,-58.15 0,-34.349 18.768,-59.114 58.24601,-59.114 h 32.40201 v 27.773 h -33.58601 c -16.026,0 -27.36001,12.507 -27.36001,31.63 0,22.71 12.96001,32.248 31.63001,32.248 h 7.71501 z m 63.79202,-117.244 -50.43501,117.264 h 32.836 l 9.30501,-23.482 h 54.10001 l 9.258,23.482 h 33.559 l -50.387,-117.264 z m 18.66001,27.29 16.49,41.034 h -33.02901 z m 73.386,89.954 v -117.264 h 37.272 l 47.59,73.676 v -73.676 h 29.317 v 117.264 h -36.067 l -48.796,-75.604 v 75.604 z m -583.234,205.212 v -117.264 h 95.661983 v 26.23 h -66.037983 v 20.059 h 64.494984 v 24.687 h -64.494984 v 20.83 h 66.037983 v 25.458 z m 468.74798,0 v -117.264 h 95.66202 v 26.23 h -66.03801 v 20.059 h 64.18701 v 24.687 h -64.18801 v 20.83 h 66.03801 v 25.458 z m -369.372998,0 46.57798705,-57.908 -47.68698605,-59.356 h 36.93499 l 28.39999,36.693 28.496993,-36.693 h 35.48799 l -47.059987,58.632 46.662987,58.632 h -36.92799 l -27.575993,-36.114 -26.90499,36.114 z m 131.295963,-117.244 v 117.264 h 30.086995 v -37.03 h 30.859 c 26.111,0 45.90301,-13.853 45.90301,-40.792 0,-22.317 -15.52301,-39.442 -42.09401,-39.442 z m 30.086995,26.52 h 32.498 c 8.436,0 14.465,5.17 14.465,13.5 0,7.826 -5.999,13.501 -14.561,13.501 h -32.402 z m 89.49101,-26.54 v 117.264 h 29.31601 v -41.66 h 12.344 l 35.15001,41.66 h 35.82501 l -38.57301,-43.202 c 15.83001,-1.336 32.16001,-14.924 32.16001,-36.019 0,-24.676 -19.36801,-38.043 -40.98401,-38.043 z m 29.31601,26.23 h 33.51101 c 8.039,0 13.887,6.288 13.887,12.344 0,7.79 -7.577,12.343 -13.453,12.343 h -33.94501 z m 198.42304,91.034 v -25.458 h 58.671 c 8.681,0 12.44,-4.692 12.44,-9.837 0,-4.93 -3.747,-9.913 -12.44,-9.913 h -26.513 c -23.045,0 -35.88,-14.04 -35.88,-35.121 0,-18.803 11.753,-36.935 46,-36.935 h 57.088 l -12.343,26.385 h -49.375 c -9.438,0 -12.343,4.952 -12.343,9.682 0,4.86 3.59,10.222 10.8,10.222 h 27.773 c 25.69,0 36.838,14.572 36.838,33.655 0,20.517 -12.422,37.32 -38.236,37.32 z m 107.597,0 v -25.458 h 58.67 c 8.682,0 12.44,-4.692 12.44,-9.837 0,-4.93 -3.746,-9.913 -12.44,-9.913 h -26.512 c -23.046,0 -35.88,-14.04 -35.88,-35.121 0,-18.803 11.753,-36.935 45.999,-36.935 h 57.089 l -12.344,26.385 h -49.374 c -9.438,0 -12.344,4.952 -12.344,9.682 0,4.86 3.59,10.222 10.801,10.222 h 27.773 c 25.69,0 36.838,14.572 36.838,33.655 0,20.517 -12.422,37.32 -38.236,37.32 z"
       fill="#016fd0"
       id="path3" /></g></svg>
