<?xml version="1.0" encoding="UTF-8" standalone="no"?>
<svg
   width="1.8750001in"
   height="1.25in"
   viewBox="0 0 135.00026 90"
   version="1.1"
   id="svg5"
   sodipodi:docname="Mastercard.svg"
   xmlns:inkscape="http://www.inkscape.org/namespaces/inkscape"
   xmlns:sodipodi="http://sodipodi.sourceforge.net/DTD/sodipodi-0.dtd"
   xmlns="http://www.w3.org/2000/svg"
   xmlns:svg="http://www.w3.org/2000/svg">
  <defs
     id="defs5" />
  <sodipodi:namedview
     id="namedview5"
     pagecolor="#ffffff"
     bordercolor="#000000"
     borderopacity="0.25"
     inkscape:showpageshadow="2"
     inkscape:pageopacity="0.0"
     inkscape:pagecheckerboard="0"
     inkscape:deskcolor="#d1d1d1"
     inkscape:document-units="in"
     showguides="true" />
  <rect
     width="135.00026"
     height="90.000168"
     style="fill:none;stroke-width:0.85916"
     id="rect1"
     x="1.0658141e-14"
     y="-0.00010084053" />
  <g
     id="g4"
     transform="translate(-8.703373,-9.0000169)">
    <rect
       x="60.411701"
       y="25.6968"
       width="31.5"
       height="56.6064"
       style="fill:#ff5f00"
       id="rect2" />
    <path
       d="m 382.20839,306 a 35.9375,35.9375 0 0 1 13.7499,-28.3032 36,36 0 1 0 0,56.6064 A 35.938,35.938 0 0 1 382.20839,306 Z"
       transform="translate(-319.79649,-252)"
       style="fill:#eb001b"
       id="path2" />
    <path
       d="m 454.20349,306 a 35.99867,35.99867 0 0 1 -58.2452,28.3032 36.00518,36.00518 0 0 0 0,-56.6064 35.99867,35.99867 0 0 1 58.2452,28.3032 z"
       transform="translate(-319.79649,-252)"
       style="fill:#f79e1b"
       id="path3" />
    <path
       d="m 450.76889,328.3077 v -1.1589 h 0.4673 v -0.2361 h -1.1901 v 0.2361 h 0.4675 v 1.1589 z m 2.3105,0 v -1.3973 h -0.3648 l -0.41959,0.9611 -0.41971,-0.9611 h -0.365 v 1.3973 h 0.2576 v -1.054 l 0.3935,0.9087 h 0.2671 l 0.39351,-0.911 v 1.0563 z"
       transform="translate(-319.79649,-252)"
       style="fill:#f79e1b"
       id="path4" />
  </g>
</svg>
