<?xml version="1.0" encoding="UTF-8" standalone="no"?>
<svg
   version="1.0"
   width="2450.9441pt"
   height="1607.8185pt"
   viewBox="0 0 2450.9441 1607.8185"
   preserveAspectRatio="xMidYMid"
   id="svg9"
   sodipodi:docname="logo_solve_1.svg"
   xml:space="preserve"
   inkscape:version="1.3 (0e150ed6c4, 2023-07-21)"
   xmlns:inkscape="http://www.inkscape.org/namespaces/inkscape"
   xmlns:sodipodi="http://sodipodi.sourceforge.net/DTD/sodipodi-0.dtd"
   xmlns:xlink="http://www.w3.org/1999/xlink"
   xmlns="http://www.w3.org/2000/svg"
   xmlns:svg="http://www.w3.org/2000/svg"><defs
     id="defs9"><linearGradient
       id="linearGradient22"
       inkscape:collect="always"><stop
         style="stop-color:#8225fc;stop-opacity:1;"
         offset="0.3093093"
         id="stop22" /><stop
         style="stop-color:#910cbd;stop-opacity:1;"
         offset="0.78378373"
         id="stop23" /></linearGradient><linearGradient
       inkscape:collect="always"
       xlink:href="#linearGradient22"
       id="linearGradient23"
       x1="1433.8458"
       y1="840.1026"
       x2="2119.417"
       y2="840.1026"
       gradientUnits="userSpaceOnUse" /><linearGradient
       inkscape:collect="always"
       xlink:href="#linearGradient22"
       id="linearGradient28"
       gradientUnits="userSpaceOnUse"
       x1="1433.8458"
       y1="840.1026"
       x2="2119.417"
       y2="840.1026" /><linearGradient
       inkscape:collect="always"
       xlink:href="#linearGradient22"
       id="linearGradient29"
       gradientUnits="userSpaceOnUse"
       x1="1433.8458"
       y1="840.1026"
       x2="2119.417"
       y2="840.1026" /><linearGradient
       inkscape:collect="always"
       xlink:href="#linearGradient22"
       id="linearGradient30"
       gradientUnits="userSpaceOnUse"
       x1="1433.8458"
       y1="840.1026"
       x2="2119.417"
       y2="840.1026" /><linearGradient
       inkscape:collect="always"
       xlink:href="#linearGradient22"
       id="linearGradient31"
       gradientUnits="userSpaceOnUse"
       x1="1433.8458"
       y1="840.1026"
       x2="2119.417"
       y2="840.1026" /><linearGradient
       inkscape:collect="always"
       xlink:href="#linearGradient22"
       id="linearGradient32"
       gradientUnits="userSpaceOnUse"
       x1="1433.8458"
       y1="840.1026"
       x2="2119.417"
       y2="840.1026" /></defs><sodipodi:namedview
     id="namedview9"
     pagecolor="#ffffff"
     bordercolor="#000000"
     borderopacity="0.25"
     inkscape:showpageshadow="2"
     inkscape:pageopacity="0.0"
     inkscape:pagecheckerboard="0"
     inkscape:deskcolor="#d1d1d1"
     inkscape:document-units="pt"
     inkscape:zoom="0.049138361"
     inkscape:cx="61.052097"
     inkscape:cy="2309.8043"
     inkscape:window-width="1366"
     inkscape:window-height="697"
     inkscape:window-x="-8"
     inkscape:window-y="-8"
     inkscape:window-maximized="1"
     inkscape:current-layer="svg9" /><metadata
     id="metadata1">&#10;Created by potrace 1.15, written by Peter Selinger 2001-2017&#10;</metadata><g
     id="g28"
     transform="translate(-556.07334,-524.05618)"
     style="fill:#1d1e1b;fill-opacity:1;stroke:none;stroke-width:2;stroke-dasharray:none;stroke-opacity:1"><path
       d="m 1758,1752 v 368 h 39.5 39.5 v -368 -368 h -39.5 -39.5 z"
       id="path5"
       style="fill:#1d1e1b;fill-opacity:1;stroke:none;stroke-width:2;stroke-dasharray:none;stroke-opacity:1" /><path
       d="m 1320.8,1588.1 c -65.6,4.2 -126.9,31.8 -172.9,77.8 -21.6,21.7 -36.8,43 -51,71.6 -14,28.4 -23.1,58.9 -27.1,91.5 -1.6,13.5 -1.6,50.5 0,64 6.5,52.8 26.9,101.9 58.9,141.5 9.7,12 30.6,32.6 42.3,41.7 39.8,30.8 86.9,49.4 138.9,54.9 15,1.5 57.1,0.6 71.1,-1.5 59,-9.3 110.6,-35.2 151.5,-76.1 41.8,-41.9 67.6,-93.8 77.2,-155.5 1.4,-9 1.8,-17.5 1.8,-39 0,-29.4 -0.9,-38 -6.1,-62 -18,-82.2 -76.4,-153.5 -152.7,-186.5 -31.2,-13.5 -59.6,-20.2 -95.3,-22.5 -17.4,-1.1 -18,-1.1 -36.6,0.1 z m 38,70 c 90,9.7 158.8,80.6 171.3,176.4 1.7,13.4 1.5,42.8 -0.5,56.9 -12.6,88.6 -72.7,153.4 -155.6,167.7 -62.2,10.7 -124,-9.2 -167.5,-54.2 -16.3,-16.9 -25.9,-30.5 -36,-51.4 -9.6,-19.7 -15.3,-37.5 -19,-59.5 -2.2,-13 -3.1,-43.8 -1.6,-58.1 6.3,-60.5 35.2,-112.9 80.2,-145.2 11.5,-8.3 33.8,-19.5 47.9,-24.1 24.9,-8.2 54.7,-11.4 80.8,-8.5 z"
       id="path6"
       style="fill:#1d1e1b;fill-opacity:1;stroke:none;stroke-width:2;stroke-dasharray:none;stroke-opacity:1" /><path
       d="m 2746,1588 c -32.4,2.4 -60.9,10.2 -90,24.6 -24.5,12.2 -44,26.3 -63.5,46 -43.1,43.3 -69.3,100.4 -77.1,167.4 -2.3,20.1 -1.5,61.5 1.5,81 12.1,78.3 51.3,141.7 113.1,183.1 24.6,16.5 59.2,30.7 89.8,36.9 22.4,4.5 33.9,5.3 63.5,4.7 32.1,-0.6 51.8,-3.5 77.9,-11.3 29.6,-8.8 60.7,-25.3 86.8,-46.2 11.4,-9.1 41.4,-38.5 40.9,-40 -0.2,-0.6 -11.2,-10.7 -24.4,-22.5 l -24,-21.5 -8.5,8.2 c -32.4,31.2 -67.1,51.1 -103.8,59.7 -29.8,6.9 -62.1,7.6 -90.5,1.9 -22.6,-4.6 -48.2,-15.6 -66.7,-28.8 -40.2,-28.6 -68.1,-76 -76,-129.2 -0.6,-4.1 -1.3,-8.7 -1.5,-10.3 l -0.4,-2.7 h 206.4 206.5 l 0.6,-2.6 c 1.2,-4.7 -0.4,-57.3 -2.1,-69.4 -5.9,-42.4 -17.3,-79.2 -34.2,-109.5 -33.6,-60.6 -84.3,-99.3 -149.3,-114 -21.1,-4.8 -52.6,-7.1 -75,-5.5 z m 48.3,69 c 47.8,9.4 84.1,37.3 108,83.1 12.5,23.8 21,52.5 24.5,82.6 l 0.8,7.3 h -167.3 -167.2 l 0.4,-2.8 c 0.2,-1.5 0.9,-6.1 1.5,-10.2 1.8,-11.6 6.8,-31.2 11,-43.2 11.2,-31.2 30.9,-61.1 53,-80.3 24.5,-21.4 52.5,-34.2 84,-38.5 11.1,-1.5 39.1,-0.4 51.3,2 z"
       id="path7"
       style="fill:#1d1e1b;fill-opacity:1;stroke:none;stroke-width:2;stroke-dasharray:none;stroke-opacity:1" /><path
       d="m 746,1589.6 c -39.4,2.1 -74.8,12.9 -103,31.6 -11.7,7.7 -31.7,27.2 -38.7,37.8 -16.2,24.3 -23.5,49.3 -23.6,80.5 0,28.2 5.6,48.1 19.3,68.6 6.6,9.9 23.1,25.6 35.4,33.7 26.8,17.7 52.4,28 115.1,46.2 18.7,5.5 39.9,11.9 47,14.3 50.2,16.9 75.2,35.7 83.1,62.2 2.4,8 2.4,24.3 0.1,34.6 -5.9,25.8 -27.6,47.3 -57.4,57.2 -18.1,6 -26.1,7.1 -49.3,7.1 -30.5,0 -56.4,-4.7 -87.5,-15.9 -25.2,-9 -62,-28.7 -83.9,-44.9 l -7.5,-5.6 -2.5,3.3 c -1.3,1.7 -10.3,14.4 -20,28.1 -16.9,23.9 -17.6,25 -15.9,26.7 1,1 7,5.4 13.3,9.9 43.4,31 96.8,52.5 152.6,61.6 19.4,3.2 58,4.4 76.6,2.5 75,-7.8 131.2,-47.3 150.3,-105.7 5.9,-18 7,-25.3 7,-49.9 0,-19.5 -0.3,-23 -2.3,-31 -5.6,-22.5 -14.7,-38.7 -30.2,-54.6 -25.1,-25.5 -61,-43.4 -128,-63.9 -80.9,-24.6 -106.2,-35.8 -124.6,-55.2 -13.7,-14.4 -18.2,-31 -13.9,-51.3 8.3,-39.3 50.5,-63.5 106.5,-61.2 35.7,1.5 71.9,11.3 109.5,29.7 8.8,4.3 20.6,10.6 26.3,14 8.7,5.3 10.6,6.1 11.6,4.9 1.9,-2 34.6,-56.5 34.6,-57.5 0,-1.4 -20.6,-13.4 -35.5,-20.8 -37.2,-18.4 -78.6,-30.7 -117.5,-35 -14.6,-1.6 -36.6,-2.5 -47,-2 z"
       id="path8"
       style="fill:#1d1e1b;fill-opacity:1;stroke:none;stroke-width:2;stroke-dasharray:none;stroke-opacity:1" /><path
       d="m 2252.5,1813.6 c -74.5,182.6 -88.1,215.2 -89,213.3 -0.5,-1.2 -15.4,-39.6 -33,-85.3 l -32.1,-83.1 -43.3,-0.3 c -41,-0.2 -43.3,-0.1 -42.9,1.5 0.3,1 26.5,60.9 58.4,133 l 57.8,131.3 h 35.1 l 35,-0.1 112.7,-261.2 c 62,-143.6 113,-262 113.4,-263 0.6,-1.6 -1.8,-1.7 -41.8,-1.7 h -42.4 z"
       id="path9"
       style="fill:#1d1e1b;fill-opacity:1;stroke:none;stroke-width:2;stroke-dasharray:none;stroke-opacity:1" /></g><g
     id="g22"
     style="fill:url(#linearGradient23);stroke:#ffffff;stroke-width:2;stroke-dasharray:none;stroke-opacity:1"
     transform="translate(-558.20113,-539.12048)"><rect
       style="fill:url(#linearGradient28);fill-opacity:1;stroke:#ffffff;stroke-width:2;stroke-dasharray:none;stroke-opacity:1"
       id="rect9"
       width="433.88837"
       height="101.4249"
       x="1685.5287"
       y="540.12048" /><rect
       style="fill:url(#linearGradient29);fill-opacity:1;stroke:#ffffff;stroke-width:2;stroke-dasharray:none;stroke-opacity:1"
       id="rect10"
       width="128.1794"
       height="98.968811"
       x="1557.8711"
       y="639.02612"
       ry="0" /><rect
       style="fill:url(#linearGradient30);fill-opacity:1;stroke:#ffffff;stroke-width:2;stroke-dasharray:none;stroke-opacity:1"
       id="rect11"
       width="385.59378"
       height="99.659569"
       x="1567.9426"
       y="774.84021"
       ry="0" /><rect
       style="fill:url(#linearGradient31);fill-opacity:1;stroke:#ffffff;stroke-width:2;stroke-dasharray:none;stroke-opacity:1"
       id="rect12"
       width="262.97604"
       height="98.616013"
       x="1810.0476"
       y="905.80646"
       ry="0"
       rx="0" /><rect
       style="fill:url(#linearGradient32);fill-opacity:1;stroke:#ffffff;stroke-width:2;stroke-dasharray:none;stroke-opacity:1"
       id="rect13"
       width="535.86584"
       height="99.659592"
       x="1433.8458"
       y="1040.4252"
       ry="0" /></g></svg>
